<mxfile modified="2023-06-30T15:53:03.463Z" host="app.diagrams.net" agent="Mozilla/5.0 (Windows NT 10.0; Win64; x64) AppleWebKit/537.36 (KHTML, like Gecko) Chrome/114.0.0.0 Safari/537.36" etag="ap8_IA2C8HYYepPEprkh" version="21.5.2" type="github">
  <diagram id="Ht1M8jgEwFfnCIfOTk4-" name="Page-1">
    <mxGraphModel dx="1062" dy="566" grid="1" gridSize="10" guides="1" tooltips="1" connect="1" arrows="1" fold="1" page="1" pageScale="1" pageWidth="827" pageHeight="1169" math="0" shadow="0">
      <root>
        <mxCell id="0" />
        <mxCell id="1" parent="0" />
        <mxCell id="DZXE_L7f7-npQuDMQyiP-21" value="" style="rounded=0;whiteSpace=wrap;html=1;fillColor=none;" vertex="1" parent="1">
          <mxGeometry x="280" y="171.5" width="260" height="350" as="geometry" />
        </mxCell>
        <mxCell id="-QjtrjUzRDEMRZ5MF8oH-46" value="" style="rounded=0;whiteSpace=wrap;html=1;fillColor=#EAEDED;fontSize=22;fontColor=#FFFFFF;strokeColor=none;labelBackgroundColor=none;" parent="1" vertex="1">
          <mxGeometry x="50" y="660" width="539" height="450" as="geometry" />
        </mxCell>
        <mxCell id="-QjtrjUzRDEMRZ5MF8oH-36" value="1" style="rounded=1;whiteSpace=wrap;html=1;fillColor=#007CBD;strokeColor=none;fontColor=#FFFFFF;fontStyle=1;fontSize=22;labelBackgroundColor=none;" parent="1" vertex="1">
          <mxGeometry x="68.5" y="672.5" width="40" height="38" as="geometry" />
        </mxCell>
        <mxCell id="-QjtrjUzRDEMRZ5MF8oH-47" value="Title text&lt;br&gt;" style="text;html=1;resizable=0;points=[];autosize=1;align=left;verticalAlign=top;spacingTop=-4;fontSize=30;fontStyle=1;labelBackgroundColor=none;" parent="1" vertex="1">
          <mxGeometry x="36.5" y="26.5" width="130" height="40" as="geometry" />
        </mxCell>
        <mxCell id="DZXE_L7f7-npQuDMQyiP-4" value="houstagram-web-dev&lt;br style=&quot;border-color: var(--border-color);&quot;&gt;&lt;br&gt;&lt;br style=&quot;border-color: var(--border-color);&quot;&gt;&lt;br style=&quot;border-color: var(--border-color);&quot;&gt;houstagram-was-dev&lt;br style=&quot;border-color: var(--border-color);&quot;&gt;-&amp;nbsp; Jenkinsfile&lt;br style=&quot;border-color: var(--border-color);&quot;&gt;-&amp;nbsp; Dockerfile&lt;br style=&quot;border-color: var(--border-color);&quot;&gt;&lt;br style=&quot;border-color: var(--border-color);&quot;&gt;CICD_INFRA&lt;br style=&quot;border-color: var(--border-color);&quot;&gt;-&amp;nbsp; Jenkinsfile&lt;br style=&quot;border-color: var(--border-color);&quot;&gt;-&amp;nbsp; Terraform&lt;br style=&quot;border-color: var(--border-color);&quot;&gt;" style="text;html=1;strokeColor=none;fillColor=none;align=left;verticalAlign=middle;whiteSpace=wrap;rounded=0;fontSize=14;" vertex="1" parent="1">
          <mxGeometry x="353" y="198.5" width="151" height="212" as="geometry" />
        </mxCell>
        <mxCell id="DZXE_L7f7-npQuDMQyiP-13" style="edgeStyle=orthogonalEdgeStyle;rounded=0;orthogonalLoop=1;jettySize=auto;html=1;entryX=0;entryY=0.152;entryDx=0;entryDy=0;entryPerimeter=0;" edge="1" parent="1" source="DZXE_L7f7-npQuDMQyiP-12" target="DZXE_L7f7-npQuDMQyiP-21">
          <mxGeometry relative="1" as="geometry" />
        </mxCell>
        <mxCell id="DZXE_L7f7-npQuDMQyiP-12" value="" style="shape=umlActor;verticalLabelPosition=bottom;verticalAlign=top;html=1;outlineConnect=0;" vertex="1" parent="1">
          <mxGeometry x="160" y="160.5" width="30" height="60" as="geometry" />
        </mxCell>
        <mxCell id="DZXE_L7f7-npQuDMQyiP-20" value="" style="shape=image;verticalLabelPosition=bottom;labelBackgroundColor=default;verticalAlign=top;aspect=fixed;imageAspect=0;image=https://img1.daumcdn.net/thumb/R800x0/?scode=mtistory2&amp;fname=https%3A%2F%2Fblog.kakaocdn.net%2Fdn%2FcHFpge%2FbtqCcVunx1Y%2Fieg750mwQFMRqAiSDlQvgk%2Fimg.png;" vertex="1" parent="1">
          <mxGeometry x="304" y="184.5" width="40" height="40" as="geometry" />
        </mxCell>
        <mxCell id="DZXE_L7f7-npQuDMQyiP-104" style="edgeStyle=orthogonalEdgeStyle;rounded=0;orthogonalLoop=1;jettySize=auto;html=1;exitX=1;exitY=0.5;exitDx=0;exitDy=0;entryX=0;entryY=0.25;entryDx=0;entryDy=0;startArrow=classic;startFill=1;endArrow=none;endFill=0;" edge="1" parent="1" source="DZXE_L7f7-npQuDMQyiP-70" target="DZXE_L7f7-npQuDMQyiP-63">
          <mxGeometry relative="1" as="geometry">
            <Array as="points">
              <mxPoint x="450" y="239" />
              <mxPoint x="450" y="237" />
              <mxPoint x="590" y="237" />
              <mxPoint x="590" y="369" />
            </Array>
          </mxGeometry>
        </mxCell>
        <mxCell id="DZXE_L7f7-npQuDMQyiP-70" value="-&amp;nbsp; Jenkinsfile" style="text;html=1;strokeColor=none;fillColor=none;align=left;verticalAlign=middle;whiteSpace=wrap;rounded=0;fontSize=14;" vertex="1" parent="1">
          <mxGeometry x="353" y="221" width="90" height="35" as="geometry" />
        </mxCell>
        <mxCell id="DZXE_L7f7-npQuDMQyiP-72" value="-&amp;nbsp; Dockerfile" style="text;html=1;strokeColor=none;fillColor=none;align=left;verticalAlign=middle;whiteSpace=wrap;rounded=0;fontSize=14;" vertex="1" parent="1">
          <mxGeometry x="353" y="239.5" width="90" height="30" as="geometry" />
        </mxCell>
        <mxCell id="DZXE_L7f7-npQuDMQyiP-83" value="Helm Chart&amp;nbsp;&lt;br style=&quot;border-color: var(--border-color);&quot;&gt;-&amp;nbsp; ingress.yaml&lt;br style=&quot;border-color: var(--border-color);&quot;&gt;-&amp;nbsp; web.yaml&lt;br style=&quot;border-color: var(--border-color);&quot;&gt;-&amp;nbsp; was.yaml" style="text;html=1;strokeColor=none;fillColor=none;align=left;verticalAlign=middle;whiteSpace=wrap;rounded=0;fontSize=14;" vertex="1" parent="1">
          <mxGeometry x="353" y="410.5" width="111" height="72" as="geometry" />
        </mxCell>
        <mxCell id="DZXE_L7f7-npQuDMQyiP-3" value="" style="shape=image;verticalLabelPosition=bottom;labelBackgroundColor=default;verticalAlign=top;aspect=fixed;imageAspect=0;image=https://cdn-icons-png.flaticon.com/512/25/25231.png;" vertex="1" parent="1">
          <mxGeometry x="383.5" y="100" width="61" height="61" as="geometry" />
        </mxCell>
        <mxCell id="DZXE_L7f7-npQuDMQyiP-98" style="edgeStyle=orthogonalEdgeStyle;rounded=0;orthogonalLoop=1;jettySize=auto;html=1;exitX=0;exitY=0.5;exitDx=0;exitDy=0;entryX=0.25;entryY=1;entryDx=0;entryDy=0;" edge="1" parent="1" source="DZXE_L7f7-npQuDMQyiP-92" target="DZXE_L7f7-npQuDMQyiP-83">
          <mxGeometry relative="1" as="geometry">
            <Array as="points">
              <mxPoint x="600" y="795" />
              <mxPoint x="600" y="620" />
              <mxPoint x="377" y="620" />
              <mxPoint x="377" y="483" />
            </Array>
          </mxGeometry>
        </mxCell>
        <mxCell id="jZVaUwOg5UY3L9NAnvdq-71" value="AWS Cloud" style="points=[[0,0],[0.25,0],[0.5,0],[0.75,0],[1,0],[1,0.25],[1,0.5],[1,0.75],[1,1],[0.75,1],[0.5,1],[0.25,1],[0,1],[0,0.75],[0,0.5],[0,0.25]];outlineConnect=0;gradientColor=none;html=1;whiteSpace=wrap;fontSize=12;fontStyle=0;shape=mxgraph.aws4.group;grIcon=mxgraph.aws4.group_aws_cloud_alt;strokeColor=#232F3E;fillColor=none;verticalAlign=top;align=left;spacingLeft=30;fontColor=#232F3E;dashed=0;labelBackgroundColor=none;container=1;pointerEvents=0;collapsible=0;recursiveResize=0;" parent="1" vertex="1">
          <mxGeometry x="620" y="100" width="520" height="1010" as="geometry" />
        </mxCell>
        <mxCell id="DZXE_L7f7-npQuDMQyiP-91" value="" style="text;html=1;strokeColor=default;fillColor=none;align=center;verticalAlign=top;whiteSpace=wrap;rounded=0;horizontal=1;fontSize=15;" vertex="1" parent="jZVaUwOg5UY3L9NAnvdq-71">
          <mxGeometry x="20" y="570" width="480" height="420" as="geometry" />
        </mxCell>
        <mxCell id="DZXE_L7f7-npQuDMQyiP-46" value="VPC" style="sketch=0;outlineConnect=0;gradientColor=none;html=1;whiteSpace=wrap;fontSize=12;fontStyle=0;shape=mxgraph.aws4.group;grIcon=mxgraph.aws4.group_vpc;strokeColor=#879196;fillColor=none;verticalAlign=top;align=left;spacingLeft=30;fontColor=#879196;dashed=0;" vertex="1" parent="jZVaUwOg5UY3L9NAnvdq-71">
          <mxGeometry x="394" y="60" width="100" height="340" as="geometry" />
        </mxCell>
        <mxCell id="DZXE_L7f7-npQuDMQyiP-49" value="" style="outlineConnect=0;dashed=0;verticalLabelPosition=bottom;verticalAlign=top;align=center;html=1;shape=mxgraph.aws3.dynamo_db;fillColor=#2E73B8;gradientColor=none;" vertex="1" parent="jZVaUwOg5UY3L9NAnvdq-71">
          <mxGeometry x="408" y="200" width="72" height="81" as="geometry" />
        </mxCell>
        <mxCell id="DZXE_L7f7-npQuDMQyiP-50" value="" style="sketch=0;points=[[0,0,0],[0.25,0,0],[0.5,0,0],[0.75,0,0],[1,0,0],[0,1,0],[0.25,1,0],[0.5,1,0],[0.75,1,0],[1,1,0],[0,0.25,0],[0,0.5,0],[0,0.75,0],[1,0.25,0],[1,0.5,0],[1,0.75,0]];outlineConnect=0;fontColor=#232F3E;gradientColor=#F78E04;gradientDirection=north;fillColor=#D05C17;strokeColor=#ffffff;dashed=0;verticalLabelPosition=bottom;verticalAlign=top;align=center;html=1;fontSize=12;fontStyle=0;aspect=fixed;shape=mxgraph.aws4.resourceIcon;resIcon=mxgraph.aws4.ecs;" vertex="1" parent="jZVaUwOg5UY3L9NAnvdq-71">
          <mxGeometry x="405" y="300" width="78" height="78" as="geometry" />
        </mxCell>
        <mxCell id="DZXE_L7f7-npQuDMQyiP-43" value="" style="sketch=0;points=[[0,0,0],[0.25,0,0],[0.5,0,0],[0.75,0,0],[1,0,0],[0,1,0],[0.25,1,0],[0.5,1,0],[0.75,1,0],[1,1,0],[0,0.25,0],[0,0.5,0],[0,0.75,0],[1,0.25,0],[1,0.5,0],[1,0.75,0]];outlineConnect=0;fontColor=#232F3E;gradientColor=#60A337;gradientDirection=north;fillColor=#277116;strokeColor=#ffffff;dashed=0;verticalLabelPosition=bottom;verticalAlign=top;align=center;html=1;fontSize=12;fontStyle=0;aspect=fixed;shape=mxgraph.aws4.resourceIcon;resIcon=mxgraph.aws4.s3;container=0;" vertex="1" parent="jZVaUwOg5UY3L9NAnvdq-71">
          <mxGeometry x="405" y="100" width="78" height="78" as="geometry" />
        </mxCell>
        <mxCell id="DZXE_L7f7-npQuDMQyiP-22" value="VPC" style="points=[[0,0],[0.25,0],[0.5,0],[0.75,0],[1,0],[1,0.25],[1,0.5],[1,0.75],[1,1],[0.75,1],[0.5,1],[0.25,1],[0,1],[0,0.75],[0,0.5],[0,0.25]];outlineConnect=0;gradientColor=none;html=1;whiteSpace=wrap;fontSize=12;fontStyle=0;container=1;pointerEvents=0;collapsible=0;recursiveResize=0;shape=mxgraph.aws4.group;grIcon=mxgraph.aws4.group_vpc;strokeColor=#248814;fillColor=none;verticalAlign=top;align=left;spacingLeft=30;fontColor=#AAB7B8;dashed=0;" vertex="1" parent="jZVaUwOg5UY3L9NAnvdq-71">
          <mxGeometry x="20" y="30" width="310" height="450" as="geometry" />
        </mxCell>
        <mxCell id="DZXE_L7f7-npQuDMQyiP-105" style="edgeStyle=orthogonalEdgeStyle;rounded=0;orthogonalLoop=1;jettySize=auto;html=1;exitX=1;exitY=0.5;exitDx=0;exitDy=0;entryX=0;entryY=0.5;entryDx=0;entryDy=0;" edge="1" parent="DZXE_L7f7-npQuDMQyiP-22" source="DZXE_L7f7-npQuDMQyiP-36" target="DZXE_L7f7-npQuDMQyiP-35">
          <mxGeometry relative="1" as="geometry" />
        </mxCell>
        <mxCell id="DZXE_L7f7-npQuDMQyiP-36" value="Public subnet" style="points=[[0,0],[0.25,0],[0.5,0],[0.75,0],[1,0],[1,0.25],[1,0.5],[1,0.75],[1,1],[0.75,1],[0.5,1],[0.25,1],[0,1],[0,0.75],[0,0.5],[0,0.25]];outlineConnect=0;gradientColor=none;html=1;whiteSpace=wrap;fontSize=12;fontStyle=0;container=1;pointerEvents=0;collapsible=0;recursiveResize=0;shape=mxgraph.aws4.group;grIcon=mxgraph.aws4.group_security_group;grStroke=0;strokeColor=#248814;fillColor=#E9F3E6;verticalAlign=top;align=left;spacingLeft=30;fontColor=#248814;dashed=0;" vertex="1" parent="DZXE_L7f7-npQuDMQyiP-22">
          <mxGeometry x="20" y="29.5" width="120" height="130.5" as="geometry" />
        </mxCell>
        <mxCell id="DZXE_L7f7-npQuDMQyiP-30" value="" style="shape=image;verticalLabelPosition=bottom;labelBackgroundColor=default;verticalAlign=top;aspect=fixed;imageAspect=0;image=https://upload.wikimedia.org/wikipedia/commons/thumb/e/e9/Jenkins_logo.svg/1200px-Jenkins_logo.svg.png;" vertex="1" parent="DZXE_L7f7-npQuDMQyiP-36">
          <mxGeometry x="25.17" y="29.5" width="65.54" height="90.5" as="geometry" />
        </mxCell>
        <mxCell id="DZXE_L7f7-npQuDMQyiP-35" value="Private subnet" style="points=[[0,0],[0.25,0],[0.5,0],[0.75,0],[1,0],[1,0.25],[1,0.5],[1,0.75],[1,1],[0.75,1],[0.5,1],[0.25,1],[0,1],[0,0.75],[0,0.5],[0,0.25]];outlineConnect=0;gradientColor=none;html=1;whiteSpace=wrap;fontSize=12;fontStyle=0;container=1;pointerEvents=0;collapsible=0;recursiveResize=0;shape=mxgraph.aws4.group;grIcon=mxgraph.aws4.group_security_group;grStroke=0;strokeColor=#147EBA;fillColor=#E6F2F8;verticalAlign=top;align=left;spacingLeft=30;fontColor=#147EBA;dashed=0;" vertex="1" parent="DZXE_L7f7-npQuDMQyiP-22">
          <mxGeometry x="170" y="30" width="120" height="130" as="geometry" />
        </mxCell>
        <mxCell id="DZXE_L7f7-npQuDMQyiP-101" value="" style="shape=image;verticalLabelPosition=bottom;labelBackgroundColor=default;verticalAlign=top;aspect=fixed;imageAspect=0;image=https://upload.wikimedia.org/wikipedia/commons/thumb/e/e9/Jenkins_logo.svg/1200px-Jenkins_logo.svg.png;" vertex="1" parent="DZXE_L7f7-npQuDMQyiP-35">
          <mxGeometry x="27.23" y="30" width="65.54" height="90.5" as="geometry" />
        </mxCell>
        <mxCell id="DZXE_L7f7-npQuDMQyiP-63" value="Jenkisfile Pipeline" style="text;html=1;strokeColor=default;fillColor=none;align=center;verticalAlign=top;whiteSpace=wrap;rounded=0;horizontal=1;fontSize=15;" vertex="1" parent="DZXE_L7f7-npQuDMQyiP-22">
          <mxGeometry x="20" y="171" width="270" height="270" as="geometry" />
        </mxCell>
        <mxCell id="DZXE_L7f7-npQuDMQyiP-80" style="edgeStyle=orthogonalEdgeStyle;rounded=0;orthogonalLoop=1;jettySize=auto;html=1;exitX=1;exitY=0.5;exitDx=0;exitDy=0;entryX=0.5;entryY=0;entryDx=0;entryDy=0;" edge="1" parent="DZXE_L7f7-npQuDMQyiP-22" source="DZXE_L7f7-npQuDMQyiP-57" target="DZXE_L7f7-npQuDMQyiP-62">
          <mxGeometry relative="1" as="geometry">
            <Array as="points">
              <mxPoint x="205" y="227" />
            </Array>
          </mxGeometry>
        </mxCell>
        <mxCell id="DZXE_L7f7-npQuDMQyiP-57" value="check out git hub" style="text;html=1;strokeColor=default;fillColor=none;align=center;verticalAlign=middle;whiteSpace=wrap;rounded=0;fontSize=15;" vertex="1" parent="DZXE_L7f7-npQuDMQyiP-22">
          <mxGeometry x="40" y="210" width="130" height="30" as="geometry" />
        </mxCell>
        <mxCell id="DZXE_L7f7-npQuDMQyiP-62" value="Terraform" style="text;html=1;strokeColor=default;fillColor=none;align=center;verticalAlign=middle;whiteSpace=wrap;rounded=0;fontSize=15;" vertex="1" parent="DZXE_L7f7-npQuDMQyiP-22">
          <mxGeometry x="140" y="251" width="130" height="30" as="geometry" />
        </mxCell>
        <mxCell id="DZXE_L7f7-npQuDMQyiP-59" value="Docker image build" style="text;html=1;strokeColor=default;fillColor=none;align=center;verticalAlign=middle;whiteSpace=wrap;rounded=0;fontSize=15;" vertex="1" parent="DZXE_L7f7-npQuDMQyiP-22">
          <mxGeometry x="40" y="290" width="170" height="30" as="geometry" />
        </mxCell>
        <mxCell id="DZXE_L7f7-npQuDMQyiP-58" value="Docker image push" style="text;html=1;strokeColor=default;fillColor=none;align=center;verticalAlign=middle;whiteSpace=wrap;rounded=0;fontSize=15;" vertex="1" parent="DZXE_L7f7-npQuDMQyiP-22">
          <mxGeometry x="40" y="340" width="170" height="30" as="geometry" />
        </mxCell>
        <mxCell id="DZXE_L7f7-npQuDMQyiP-60" value="k8s image tag update" style="text;html=1;strokeColor=default;fillColor=none;align=center;verticalAlign=middle;whiteSpace=wrap;rounded=0;fontSize=15;" vertex="1" parent="DZXE_L7f7-npQuDMQyiP-22">
          <mxGeometry x="40" y="390" width="170" height="30" as="geometry" />
        </mxCell>
        <mxCell id="DZXE_L7f7-npQuDMQyiP-77" style="edgeStyle=orthogonalEdgeStyle;rounded=0;orthogonalLoop=1;jettySize=auto;html=1;exitX=1;exitY=0.25;exitDx=0;exitDy=0;entryX=0;entryY=0.5;entryDx=0;entryDy=0;entryPerimeter=0;" edge="1" parent="jZVaUwOg5UY3L9NAnvdq-71" source="DZXE_L7f7-npQuDMQyiP-62" target="DZXE_L7f7-npQuDMQyiP-43">
          <mxGeometry relative="1" as="geometry">
            <Array as="points">
              <mxPoint x="360" y="289" />
              <mxPoint x="360" y="140" />
              <mxPoint x="411" y="140" />
            </Array>
          </mxGeometry>
        </mxCell>
        <mxCell id="DZXE_L7f7-npQuDMQyiP-78" style="edgeStyle=orthogonalEdgeStyle;rounded=0;orthogonalLoop=1;jettySize=auto;html=1;exitX=1;exitY=0.75;exitDx=0;exitDy=0;entryX=0;entryY=0.5;entryDx=0;entryDy=0;entryPerimeter=0;" edge="1" parent="jZVaUwOg5UY3L9NAnvdq-71" source="DZXE_L7f7-npQuDMQyiP-62" target="DZXE_L7f7-npQuDMQyiP-49">
          <mxGeometry relative="1" as="geometry">
            <Array as="points">
              <mxPoint x="360" y="303" />
              <mxPoint x="360" y="241" />
            </Array>
          </mxGeometry>
        </mxCell>
        <mxCell id="DZXE_L7f7-npQuDMQyiP-85" value="" style="sketch=0;points=[[0,0,0],[0.25,0,0],[0.5,0,0],[0.75,0,0],[1,0,0],[0,1,0],[0.25,1,0],[0.5,1,0],[0.75,1,0],[1,1,0],[0,0.25,0],[0,0.5,0],[0,0.75,0],[1,0.25,0],[1,0.5,0],[1,0.75,0]];outlineConnect=0;fontColor=#232F3E;gradientColor=#F78E04;gradientDirection=north;fillColor=#D05C17;strokeColor=#ffffff;dashed=0;verticalLabelPosition=bottom;verticalAlign=top;align=center;html=1;fontSize=12;fontStyle=0;aspect=fixed;shape=mxgraph.aws4.resourceIcon;resIcon=mxgraph.aws4.ec2;" vertex="1" parent="jZVaUwOg5UY3L9NAnvdq-71">
          <mxGeometry x="50" y="590" width="78" height="78" as="geometry" />
        </mxCell>
        <mxCell id="DZXE_L7f7-npQuDMQyiP-89" value="" style="text;html=1;strokeColor=default;fillColor=none;align=center;verticalAlign=top;whiteSpace=wrap;rounded=0;horizontal=1;fontSize=15;" vertex="1" parent="jZVaUwOg5UY3L9NAnvdq-71">
          <mxGeometry x="158.84" y="619.75" width="233" height="230.25" as="geometry" />
        </mxCell>
        <mxCell id="DZXE_L7f7-npQuDMQyiP-87" value="" style="sketch=0;html=1;dashed=0;whitespace=wrap;fillColor=#2875E2;strokeColor=#ffffff;points=[[0.005,0.63,0],[0.1,0.2,0],[0.9,0.2,0],[0.5,0,0],[0.995,0.63,0],[0.72,0.99,0],[0.5,1,0],[0.28,0.99,0]];verticalLabelPosition=bottom;align=center;verticalAlign=top;shape=mxgraph.kubernetes.icon;prIcon=node;aspect=fixed;" vertex="1" parent="jZVaUwOg5UY3L9NAnvdq-71">
          <mxGeometry x="170" y="580" width="95.84" height="78" as="geometry" />
        </mxCell>
        <mxCell id="DZXE_L7f7-npQuDMQyiP-41" value="" style="sketch=0;points=[[0,0,0],[0.25,0,0],[0.5,0,0],[0.75,0,0],[1,0,0],[0,1,0],[0.25,1,0],[0.5,1,0],[0.75,1,0],[1,1,0],[0,0.25,0],[0,0.5,0],[0,0.75,0],[1,0.25,0],[1,0.5,0],[1,0.75,0]];outlineConnect=0;fontColor=#232F3E;gradientColor=#F78E04;gradientDirection=north;fillColor=#D05C17;strokeColor=#ffffff;dashed=0;verticalLabelPosition=bottom;verticalAlign=top;align=center;html=1;fontSize=12;fontStyle=0;aspect=fixed;shape=mxgraph.aws4.resourceIcon;resIcon=mxgraph.aws4.eks;" vertex="1" parent="jZVaUwOg5UY3L9NAnvdq-71">
          <mxGeometry x="363" y="530" width="78" height="78" as="geometry" />
        </mxCell>
        <mxCell id="DZXE_L7f7-npQuDMQyiP-97" style="edgeStyle=orthogonalEdgeStyle;rounded=0;orthogonalLoop=1;jettySize=auto;html=1;exitX=1;exitY=0.5;exitDx=0;exitDy=0;" edge="1" parent="jZVaUwOg5UY3L9NAnvdq-71" source="DZXE_L7f7-npQuDMQyiP-92">
          <mxGeometry relative="1" as="geometry">
            <mxPoint x="470" y="378" as="targetPoint" />
            <Array as="points">
              <mxPoint x="470" y="695" />
            </Array>
          </mxGeometry>
        </mxCell>
        <mxCell id="DZXE_L7f7-npQuDMQyiP-115" style="edgeStyle=orthogonalEdgeStyle;rounded=0;orthogonalLoop=1;jettySize=auto;html=1;exitX=1;exitY=0.75;exitDx=0;exitDy=0;entryX=1;entryY=0.5;entryDx=0;entryDy=0;" edge="1" parent="jZVaUwOg5UY3L9NAnvdq-71" source="DZXE_L7f7-npQuDMQyiP-92" target="DZXE_L7f7-npQuDMQyiP-116">
          <mxGeometry relative="1" as="geometry">
            <Array as="points">
              <mxPoint x="470" y="714" />
              <mxPoint x="470" y="930" />
            </Array>
          </mxGeometry>
        </mxCell>
        <mxCell id="DZXE_L7f7-npQuDMQyiP-92" value="" style="shape=image;verticalLabelPosition=bottom;labelBackgroundColor=default;verticalAlign=top;aspect=fixed;imageAspect=0;image=https://blog.kakaocdn.net/dn/J5BnI/btq8KRgd8PI/Mxs15T5o8sBelJDEQK0Ko0/img.png;" vertex="1" parent="jZVaUwOg5UY3L9NAnvdq-71">
          <mxGeometry x="237.84" y="658" width="75" height="75" as="geometry" />
        </mxCell>
        <mxCell id="DZXE_L7f7-npQuDMQyiP-93" value="" style="sketch=0;html=1;dashed=0;whitespace=wrap;fillColor=#2875E2;strokeColor=#ffffff;points=[[0.005,0.63,0],[0.1,0.2,0],[0.9,0.2,0],[0.5,0,0],[0.995,0.63,0],[0.72,0.99,0],[0.5,1,0],[0.28,0.99,0]];verticalLabelPosition=bottom;align=center;verticalAlign=top;shape=mxgraph.kubernetes.icon;prIcon=pod" vertex="1" parent="jZVaUwOg5UY3L9NAnvdq-71">
          <mxGeometry x="180" y="733" width="50" height="48" as="geometry" />
        </mxCell>
        <mxCell id="DZXE_L7f7-npQuDMQyiP-94" value="" style="sketch=0;html=1;dashed=0;whitespace=wrap;fillColor=#2875E2;strokeColor=#ffffff;points=[[0.005,0.63,0],[0.1,0.2,0],[0.9,0.2,0],[0.5,0,0],[0.995,0.63,0],[0.72,0.99,0],[0.5,1,0],[0.28,0.99,0]];verticalLabelPosition=bottom;align=center;verticalAlign=top;shape=mxgraph.kubernetes.icon;prIcon=pod" vertex="1" parent="jZVaUwOg5UY3L9NAnvdq-71">
          <mxGeometry x="180" y="790" width="50" height="48" as="geometry" />
        </mxCell>
        <mxCell id="DZXE_L7f7-npQuDMQyiP-96" value="" style="sketch=0;html=1;dashed=0;whitespace=wrap;fillColor=#2875E2;strokeColor=#ffffff;points=[[0.005,0.63,0],[0.1,0.2,0],[0.9,0.2,0],[0.5,0,0],[0.995,0.63,0],[0.72,0.99,0],[0.5,1,0],[0.28,0.99,0]];verticalLabelPosition=bottom;align=center;verticalAlign=top;shape=mxgraph.kubernetes.icon;prIcon=node;aspect=fixed;" vertex="1" parent="jZVaUwOg5UY3L9NAnvdq-71">
          <mxGeometry x="170.00000000000009" y="860" width="95.84" height="78" as="geometry" />
        </mxCell>
        <mxCell id="DZXE_L7f7-npQuDMQyiP-116" value="" style="text;html=1;strokeColor=default;fillColor=none;align=center;verticalAlign=top;whiteSpace=wrap;rounded=0;horizontal=1;fontSize=15;" vertex="1" parent="jZVaUwOg5UY3L9NAnvdq-71">
          <mxGeometry x="158.84" y="890" width="233" height="80" as="geometry" />
        </mxCell>
        <mxCell id="DZXE_L7f7-npQuDMQyiP-119" style="edgeStyle=orthogonalEdgeStyle;rounded=0;orthogonalLoop=1;jettySize=auto;html=1;exitX=1;exitY=0.5;exitDx=0;exitDy=0;entryX=0;entryY=0.75;entryDx=0;entryDy=0;entryPerimeter=0;" edge="1" parent="jZVaUwOg5UY3L9NAnvdq-71" source="DZXE_L7f7-npQuDMQyiP-58" target="DZXE_L7f7-npQuDMQyiP-50">
          <mxGeometry relative="1" as="geometry">
            <Array as="points">
              <mxPoint x="370" y="385" />
              <mxPoint x="370" y="359" />
            </Array>
          </mxGeometry>
        </mxCell>
        <mxCell id="DZXE_L7f7-npQuDMQyiP-118" style="edgeStyle=orthogonalEdgeStyle;rounded=0;orthogonalLoop=1;jettySize=auto;html=1;exitX=0;exitY=0.5;exitDx=0;exitDy=0;entryX=1;entryY=0.5;entryDx=0;entryDy=0;" edge="1" parent="1" source="DZXE_L7f7-npQuDMQyiP-59" target="DZXE_L7f7-npQuDMQyiP-72">
          <mxGeometry relative="1" as="geometry" />
        </mxCell>
      </root>
    </mxGraphModel>
  </diagram>
</mxfile>
